<svg width="1440" height="1070" viewBox="0 0 1440 1070" fill="none" xmlns="http://www.w3.org/2000/svg">
<rect width="1440" height="1070" fill="#4880FF"/>
<path fill-rule="evenodd" clip-rule="evenodd" d="M295.524 1122.91C449.775 1122.91 574.821 997.869 574.821 843.617C574.821 761.155 375.82 829.522 318.988 778.396C269.513 733.888 367.313 564.321 295.524 564.321C141.273 564.321 16.2275 689.366 16.2275 843.617C16.2275 997.869 141.273 1122.91 295.524 1122.91Z" fill="#568AFF"/>
<path opacity="0.541829" fill-rule="evenodd" clip-rule="evenodd" d="M664.989 131.23C633.804 308.088 751.895 476.74 928.754 507.925C1023.3 524.596 985.147 282.609 1055.25 227.784C1116.29 180.055 1290.94 326.47 1305.45 244.16C1336.63 67.3021 1218.54 -101.35 1041.68 -132.535C864.826 -163.72 696.174 -45.6282 664.989 131.23Z" fill="#568AFF"/>
<path opacity="0.6" fill-rule="evenodd" clip-rule="evenodd" d="M262.453 115.608C117.504 168.365 42.768 328.637 95.525 473.586C123.729 551.075 287.345 418.769 358.236 447.374C419.951 472.276 386.043 665.067 453.503 640.513C598.452 587.756 673.188 427.484 620.431 282.535C567.674 137.587 407.402 62.8505 262.453 115.608Z" fill="#568AFF"/>
<path fill-rule="evenodd" clip-rule="evenodd" d="M1377.68 905.693C1412.1 710.504 1281.77 524.372 1086.58 489.955C982.232 471.555 1024.34 738.624 946.967 799.131C879.607 851.807 686.859 690.216 670.841 781.058C636.424 976.246 766.756 1162.38 961.944 1196.8C1157.13 1231.21 1343.27 1100.88 1377.68 905.693Z" fill="#568AFF"/>
</svg>
