<svg width="390" height="297" viewBox="0 0 390 297" fill="none" xmlns="http://www.w3.org/2000/svg">
<path d="M376.598 0H13.4024C6.00082 0 0 6.00152 0 13.4057V283.519C0 290.923 6.00082 296.925 13.4024 296.925H376.597C383.999 296.925 389.999 290.923 389.999 283.519V13.4057C390 6.00152 383.999 0 376.598 0Z" fill="#1685FB"/>
<path d="M390 283.516V13.408C390 5.99848 383.997 0.00152588 376.597 0.00152588H355.018C362.418 0.00152588 368.421 5.99848 368.421 13.408V283.515C368.421 290.925 362.418 296.922 355.018 296.922H376.597C383.997 296.922 390 290.926 390 283.516Z" fill="#4C60E1"/>
<path d="M390 58.0533V13.408C390 5.99848 383.997 0.00152588 376.597 0.00152588H13.4032C6.00311 0.00228778 0 5.99924 0 13.408V58.0533H390Z" fill="#E3F4FF"/>
<path d="M390 58.0533V13.408C390 5.99848 383.997 0.00152588 376.597 0.00152588H355.018C362.418 0.00152588 368.421 5.99848 368.421 13.408V58.0533H390Z" fill="#BDDFF4"/>
<path d="M75.415 34.8587H75.3411C72.0908 34.8587 69.4561 32.2232 69.4561 28.9722C69.4561 25.7212 72.0908 23.0857 75.3411 23.0857C78.5913 23.0857 81.2635 25.7212 81.2635 28.9722C81.2635 32.2232 78.6652 34.8587 75.415 34.8587Z" fill="#54DDAC"/>
<path d="M56.1319 34.9151C52.9098 34.9151 50.2819 32.32 50.2484 29.0895C50.2141 25.8385 52.8215 23.1756 56.0717 23.1413C59.2869 23.0979 62.0207 25.7151 62.055 28.9661C62.0893 32.2179 59.5185 34.88 56.2682 34.9143L56.1944 34.9151C56.1738 34.9151 56.1525 34.9151 56.1319 34.9151Z" fill="#FDC142"/>
<path d="M36.9239 34.9707C33.7018 34.9707 31.0731 32.3756 31.0404 29.1452C31.0068 25.8933 33.6142 23.2305 36.8645 23.197C36.885 23.197 36.9064 23.197 36.9262 23.197C40.149 23.197 42.8135 25.792 42.847 29.0225C42.8805 32.2735 40.3105 34.9364 37.0595 34.9699L36.9856 34.9707C36.9658 34.9707 36.9444 34.9707 36.9239 34.9707Z" fill="#FC3E81"/>
<path d="M131.66 34.9707H111.236C107.985 34.9707 105.351 32.3352 105.351 29.0842C105.351 25.8332 107.985 23.1977 111.236 23.1977H131.66C134.91 23.1977 137.545 25.8332 137.545 29.0842C137.545 32.3352 134.91 34.9707 131.66 34.9707Z" fill="#BDDFF4"/>
<path d="M126.658 141.484H121.552V134.529C121.552 128.731 116.846 124.031 111.04 124.031C105.235 124.031 100.528 128.731 100.528 134.529V141.484H75.998L93.662 111.618C96.6144 106.626 94.9557 100.188 89.9568 97.2399C84.958 94.2906 78.5123 95.9479 75.5599 100.939L48.529 146.643C46.6098 149.888 46.5801 153.913 48.4506 157.186C50.3218 160.46 53.806 162.481 57.5805 162.481H100.529V194.119C100.529 199.917 105.235 204.618 111.041 204.618C116.847 204.618 121.553 199.917 121.553 194.119V162.481H126.659C132.464 162.481 137.171 157.78 137.171 151.982C137.17 146.184 132.464 141.484 126.658 141.484Z" fill="#FD9E28"/>
<path d="M332.419 141.484H327.314V134.529C327.314 128.731 322.607 124.031 316.802 124.031C310.996 124.031 306.29 128.731 306.29 134.529V141.484H281.759L299.423 111.618C302.375 106.626 300.716 100.188 295.718 97.2399C290.719 94.2906 284.273 95.9479 281.321 100.939L254.29 146.643C252.371 149.888 252.341 153.913 254.211 157.186C256.083 160.46 259.567 162.481 263.341 162.481H306.29V194.119C306.29 199.917 310.996 204.618 316.802 204.618C322.607 204.618 327.314 199.917 327.314 194.119V162.481H332.419C338.225 162.481 342.931 157.78 342.931 151.982C342.931 146.184 338.225 141.484 332.419 141.484Z" fill="#FD9E28"/>
<path fill-rule="evenodd" clip-rule="evenodd" d="M181.549 204.616H208.451C221.76 204.616 232.588 193.803 232.588 180.51V119.884C232.588 106.592 221.76 95.7782 208.451 95.7782H181.549C168.24 95.7782 157.412 106.591 157.412 119.884V180.51C157.412 193.802 168.24 204.616 181.549 204.616ZM180.368 124.035C180.368 121.097 182.763 118.705 185.705 118.705H204.294C207.237 118.705 209.632 121.097 209.632 124.035V176.359C209.632 179.298 207.237 181.689 204.294 181.689H185.705C182.763 181.689 180.368 179.297 180.368 176.359V124.035Z" fill="#FD9E28"/>
<path d="M283.273 272.47C280.01 272.47 277.327 269.825 277.327 266.562C277.327 263.299 279.935 260.654 283.198 260.654H283.273C286.536 260.654 289.181 263.299 289.181 266.562C289.181 269.825 286.536 272.47 283.273 272.47Z" fill="#E3F4FF"/>
<path d="M302.84 272.527C299.577 272.527 296.894 269.882 296.894 266.619C296.894 263.356 299.501 260.711 302.765 260.711H302.84C306.103 260.711 308.748 263.356 308.748 266.619C308.748 269.882 306.103 272.527 302.84 272.527Z" fill="#E3F4FF"/>
<path d="M322.409 272.584C322.389 272.584 322.368 272.584 322.347 272.584C319.084 272.551 316.429 269.878 316.462 266.615C316.496 263.373 319.097 260.767 322.332 260.767C322.353 260.767 322.373 260.767 322.394 260.767L322.469 260.767C325.732 260.801 328.35 263.473 328.316 266.737C328.283 269.978 325.643 272.584 322.409 272.584Z" fill="#E3F4FF"/>
<path d="M69.8367 248.205H50.2694C47.0064 248.205 44.3613 245.583 44.3613 242.349C44.3613 239.115 47.0064 236.493 50.2694 236.493H69.8367C73.0997 236.493 75.7449 239.115 75.7449 242.349C75.7449 245.583 73.0997 248.205 69.8367 248.205Z" fill="#E3F4FF"/>
<path d="M89.404 272.53H50.2694C47.0064 272.53 44.3613 269.908 44.3613 266.674C44.3613 263.439 47.0064 260.817 50.2694 260.817H89.404C92.667 260.817 95.3122 263.439 95.3122 266.674C95.3122 269.908 92.667 272.53 89.404 272.53Z" fill="#E3F4FF"/>
</svg>
