<svg width="61" height="60" viewBox="0 0 61 60" fill="none" xmlns="http://www.w3.org/2000/svg">
<path opacity="0.21" fill-rule="evenodd" clip-rule="evenodd" d="M0 30V37C0 49.7025 10.2974 60 23 60H30.0791H37.1582C49.8607 60 60.1582 49.7025 60.1582 37V30V23C60.1582 10.2975 49.8607 0 37.1582 0H30.0791H23C10.2974 0 0 10.2975 0 23V30Z" fill="#8280FF"/>
<path opacity="0.587821" fill-rule="evenodd" clip-rule="evenodd" d="M20.7211 23.3333C20.7211 26.2789 23.1152 28.6667 26.0685 28.6667C29.0218 28.6667 31.4159 26.2789 31.4159 23.3333C31.4159 20.3878 29.0218 18 26.0685 18C23.1152 18 20.7211 20.3878 20.7211 23.3333ZM34.0896 28.6667C34.0896 30.8758 35.8852 32.6667 38.1002 32.6667C40.3151 32.6667 42.1107 30.8758 42.1107 28.6667C42.1107 26.4575 40.3151 24.6667 38.1002 24.6667C35.8852 24.6667 34.0896 26.4575 34.0896 28.6667Z" fill="#8280FF"/>
<path fill-rule="evenodd" clip-rule="evenodd" d="M26.0463 31.3333C19.7344 31.3333 14.5559 34.5687 14.0378 40.9323C14.0095 41.2789 14.6742 42 15.0095 42H37.0931C38.0974 42 38.113 41.194 38.0974 40.9333C37.7056 34.3909 32.4469 31.3333 26.0463 31.3333ZM45.3939 42H40.2391C40.2391 38.9987 39.2449 36.2291 37.567 34.0008C42.121 34.0505 45.8394 36.3469 46.1192 41.2C46.1305 41.3955 46.1192 42 45.3939 42Z" fill="#8280FF"/>
</svg>
