<svg width="61" height="61" viewBox="0 0 61 61" fill="none" xmlns="http://www.w3.org/2000/svg">
<path opacity="0.21" fill-rule="evenodd" clip-rule="evenodd" d="M0 30.5V37.5C0 50.2025 10.2974 60.5 23 60.5H30.0791H37.1582C49.8607 60.5 60.1582 50.2025 60.1582 37.5V30.5V23.5C60.1582 10.7975 49.8607 0.5 37.1582 0.5H30.0791H23C10.2974 0.5 0 10.7975 0 23.5V30.5Z" fill="#4AD991"/>
<path d="M19.1614 41.3889H42.5563C43.4176 41.3889 44.1159 42.0853 44.1159 42.9444C44.1159 43.8036 43.4176 44.5 42.5563 44.5H17.6018C16.7404 44.5 16.0421 43.8036 16.0421 42.9444V18.0556C16.0421 17.1964 16.7404 16.5 17.6018 16.5C18.4631 16.5 19.1614 17.1964 19.1614 18.0556V41.3889Z" fill="#4AD991"/>
<path opacity="0.5" d="M24.9783 34.675C24.3891 35.3018 23.4021 35.3335 22.7737 34.7459C22.1453 34.1584 22.1135 33.1739 22.7026 32.5472L28.5513 26.325C29.1211 25.7188 30.0678 25.6663 30.7015 26.2056L35.3177 30.1344L41.3322 22.5361C41.8659 21.8618 42.8467 21.7467 43.5227 22.2791C44.1988 22.8114 44.3142 23.7896 43.7804 24.4639L36.762 33.3305C36.2138 34.0231 35.1984 34.1227 34.5254 33.5499L29.809 29.5358L24.9783 34.675Z" fill="#4AD991"/>
</svg>
