<svg width="61" height="61" viewBox="0 0 61 61" fill="none" xmlns="http://www.w3.org/2000/svg">
<path opacity="0.21" fill-rule="evenodd" clip-rule="evenodd" d="M0 30.5V37.5C0 50.2025 10.2974 60.5 23 60.5H30.0791H37.1582C49.8607 60.5 60.1582 50.2025 60.1582 37.5V30.5V23.5C60.1582 10.7975 49.8607 0.5 37.1582 0.5H30.0791H23C10.2974 0.5 0 10.7975 0 23.5V30.5Z" fill="#FEC53D"/>
<path fill-rule="evenodd" clip-rule="evenodd" d="M15.0395 24.8165L27.974 32.2646C28.1133 32.3448 28.2593 32.4027 28.408 32.4395V46.8847L15.962 39.5385C15.3902 39.201 15.0395 38.5876 15.0395 37.9249V24.8165ZM45.1186 24.6185V37.9249C45.1186 38.5876 44.7679 39.201 44.1961 39.5385L31.7501 46.8847V32.3129C31.7805 32.2978 31.8105 32.2817 31.8403 32.2646L45.1186 24.6185Z" fill="#FEC53D"/>
<path opacity="0.499209" fill-rule="evenodd" clip-rule="evenodd" d="M15.4458 21.2014C15.6038 21.0024 15.8032 20.8343 16.0357 20.7108L29.1953 13.7201C29.7477 13.4266 30.4104 13.4266 30.9628 13.7201L44.1224 20.7108C44.3016 20.806 44.4612 20.9277 44.5973 21.0697L30.1692 29.3778C30.0743 29.4325 29.9868 29.495 29.9071 29.564C29.8274 29.495 29.7399 29.4325 29.6451 29.3778L15.4458 21.2014Z" fill="#FEC53D"/>
</svg>
